
<svg xmlns="http://www.w3.org/2000/svg" version="1.1" xmlns:xlink="http://www.w3.org/1999/xlink" preserveAspectRatio="none" x="0px" y="0px" width="70px" height="70px" viewBox="0 0 70 70">
<defs>
<g id="Layer0_0_FILL">
<path fill="#FFFFFF" stroke="none" d="
M 51 41.7
Q 50.7275390625 41.4703125 50.45 41.25 48.55 40.1 46.6 41.25
L 42.65 44.45
Q 41.25 45.3 39.45 44.45 30.55 38.05 25.95 27.75
L 25.95 25.85 28.1 23.65
Q 30.25 19.9 28.85 16.85 25.3 9.85 19.8 6.5 12.25 6.1 11.65 16.1 16.2564453125 41.24140625 28.9 51 30.9482421875 52.5755859375 33.2 53.75 49.4 62.2 55.05 60.15 60.65 58.1 59 51 55.7376953125 45.61015625 51 41.7 Z"/>
</g>
</defs>

<g transform="matrix( 1, 0, 0, 1, 0,0) ">
<use xlink:href="#Layer0_0_FILL"/>
</g>
</svg>
