
<svg xmlns="http://www.w3.org/2000/svg" version="1.1" xmlns:xlink="http://www.w3.org/1999/xlink" preserveAspectRatio="none" x="0px" y="0px" width="100px" height="80px" viewBox="0 0 100 80">
<defs>
<g id="Layer0_0_FILL">
<path fill="#FFFFFF" stroke="none" d="
M 43.35 43.15
L 43.3 43.2
Q 42.1 43.2 40.9 43.45
L 40.85 43.45
Q 40.6 43.45 40.3 43.55
L 40.25 43.55
Q 39.55 43.6 38.85 43.85
L 38.8 43.8
Q 38.5 43.85 38.25 43.9
L 38.2 43.95
Q 37.85 44 37.6 44.05
L 37.55 44
Q 37.2 44.05 36.95 44.15 36.8 44.2 36.75 44.2 35.95 44.1 35.3 43.55 34.65 43.05 33.95 42.4 33.9 39.35 33.25 36.15 33.25 36.1 33.2 36.1
L 33.25 36.05
Q 33.15 35.65 32.9 35.75
L 32.8 35.75
Q 30.55 35.2 28.2 34.65
L 28.15 34.75
Q 27.5 35.3 26.95 35.95 26.95 36.05 26.9 36.05 26.85 36.25 26.6 36.35 26.65 36.4 26.65 36.45 25.9 37.45 25.25 38.4 24.5 39.45 23.55 40.15 23.55 40.1 23.5 40.1 23.2 40.15 23 40.2 22.95 40.25 22.9 40.25 21.65 40.55 20.5 40.35
L 20.5 40.3
Q 20.35 40.15 20.15 40.1
L 20.05 40.05
Q 19.55 39.65 19 39.25
L 19 39.15
Q 18.75 39 18.6 38.95
L 18.55 38.95
Q 18.35 38.85 18.1 38.6 18.05 38.6 18.05 38.5 17.9 38.35 17.7 38.3 17.7 38.35 17.65 38.35 16.5 37.4 15.3 36.7 15.25 36.75 15.2 36.75 12.9 38.1 10.65 39.4
L 10.65 39.45
Q 10.75 41.25 11 43.05
L 10.95 43.1
Q 11 43.25 10.95 43.4 10.95 43.45 11 43.5 11 43.55 11.05 43.55 11.05 43.6 11.05 43.7
L 11.05 43.75
Q 11.05 43.8 11.05 43.85 11.1 44.05 11.05 44.2 11.05 44.25 11.1 44.35
L 11.1 44.4
Q 11.2 44.4 11.2 44.45 11.3 45.2 11.45 45.95
L 11.4 46
Q 11.1 46.4 10.8 46.75 10.75 46.75 10.75 46.8 10.6 47 10.4 47.15
L 10.4 47.2 10.45 47.25
Q 10.2 47.5 10.05 47.7
L 10 47.75
Q 9.8 47.9 9.65 48.05 9.65 48.15 9.65 48.2
L 9.6 48.2
Q 9.45 48.5 9.15 48.45
L 9.1 48.45
Q 8.9 48.45 8.65 48.5
L 8.55 48.5
Q 7.75 48.65 7 48.8
L 6.95 48.8
Q 6.75 48.8 6.45 48.85
L 6.4 48.85
Q 6.15 48.85 5.8 49
L 5.75 48.95
Q 5.5 49 5.2 49.05
L 5.15 49.05
Q 5 49.05 4.75 49.15
L 4.7 49.1
Q 4.45 49.15 4.2 49.2 4.2 49.25 4.1 49.25 3.6 49.3 3.05 49.5
L 3 49.45
Q 2.7 49.55 2.5 49.65
L 2.55 49.7 2.5 49.7
Q 1.9 52.15 1.05 54.45 1.15 54.65 1.25 54.8
L 1.25 54.75
Q 1.45 55 1.75 55.2 1.9 55.4 2.05 55.45
L 2.1 55.45
Q 2.3 55.65 2.5 55.7
L 2.55 55.7
Q 2.75 55.95 3 56.1
L 3.05 56.15
Q 3.2 56.3 3.4 56.45 3.4 56.5 3.45 56.45 3.6 56.6 3.75 56.65
L 3.8 56.7
Q 3.95 56.8 4.1 56.95
L 4.2 56.95
Q 4.75 57.2 5.25 57.75
L 5.3 57.75
Q 5.5 57.95 5.7 58
L 5.75 58
Q 6 58.25 6.35 58.45 6.5 58.8 6.5 59.15
L 6.5 59.25
Q 6.55 59.5 6.5 59.75
L 6.5 59.8 6.55 59.85
Q 6.55 59.9 6.6 59.9 6.95 60.95 6.5 61.75
L 6.45 61.75
Q 6.3 61.9 6.2 62.05 6.2 62.1 6.25 62.1
L 6.2 62.2
Q 6 62.45 5.75 62.65 5.7 62.65 5.7 62.7 5.55 62.9 5.45 63.05
L 5.5 63.1
Q 5.45 63.1 5.45 63.15 5.25 63.25 5.15 63.45
L 5.1 63.5
Q 4.95 63.65 4.75 63.8 4.75 63.85 4.75 63.9
L 4.7 63.9
Q 4.3 64.55 3.8 65.15 3.75 65.15 3.75 65.2 3.6 65.35 3.45 65.5
L 3.45 65.6
Q 3.35 65.75 3.2 65.9 3.15 65.9 3.15 66 3 66.15 2.8 66.35 2.8 66.4 2.9 66.4
L 2.8 66.45
Q 2.7 66.75 2.5 67 3.75 69.1 4.95 71.3 5 71.3 5 71.35 5.15 71.3 5.3 71.3 5.55 71.35 5.75 71.3
L 5.8 71.3
Q 5.95 71.25 6.2 71.25
L 6.25 71.2
Q 6.45 71.25 6.65 71.2
L 6.75 71.2
Q 7.05 71.1 7.4 70.95 7.45 70.95 7.45 71 7.65 71.1 7.9 70.95
L 8 70.95
Q 9.35 70.7 10.7 70.5 10.75 70.5 10.75 70.45 11 70.5 11.35 70.35
L 11.35 70.3 11.4 70.3
Q 11.85 70.1 12.1 70.45 12.15 70.45 12.15 70.5 12.35 70.65 12.6 70.8
L 12.65 70.8
Q 13.25 71.2 13.85 71.65 13.85 71.75 13.9 71.75 14.05 71.85 14.2 72.05 14.2 72.1 14.25 72.1
L 14.25 72.15
Q 14.6 75.2 15.05 78.3 15.65 79 16.35 79.05 17.45 79.2 18.55 79.55 19.35 79.8 20.25 79.6 20.5 79.55 20.65 79.3 20.9 79.1 21.05 78.9
L 21.05 78.85
Q 21.3 78.6 21.45 78.4
L 21.5 78.35
Q 21.65 78.15 21.8 77.95
L 21.8 77.9
Q 21.95 77.7 22.2 77.5 22.25 77.5 22.2 77.4 22.4 77.25 22.5 77.05
L 22.45 77
Q 22.9 76.5 23.3 76
L 23.3 75.95
Q 23.5 75.8 23.65 75.6 23.65 75.55 23.6 75.55 24.1 75 24.4 74.5
L 24.45 74.45
Q 24.75 74.4 25 74.3 25.25 74.35 25.45 74.3
L 25.5 74.3
Q 26.55 74 27.45 73.95
L 27.5 73.95
Q 28 74.3 28.55 74.6
L 28.55 74.65
Q 28.75 74.8 28.9 74.95 28.9 75 28.95 74.95 29.1 75.15 29.3 75.2
L 29.3 75.25
Q 29.5 75.4 29.7 75.55
L 29.75 75.55
Q 31.3 76.75 33 77.75 33.05 77.75 33.05 77.8 35.3 76.45 37.65 75.15
L 37.7 75.1 37.65 75.05
Q 37.6 72.3 37.05 69.5
L 37.05 69.45
Q 37.1 69.2 37 68.9 36.95 68.85 36.95 68.8 37.5 67.6 38.45 66.45 38.85 66 39.4 66 39.6 66.05 39.8 66 39.9 66 39.95 65.9 40.75 65.75 41.5 65.65
L 41.55 65.65
Q 41.8 65.7 42 65.65 42.05 65.65 42.1 65.6 43.45 65.4 44.8 65.1 44.85 65.1 44.9 65.05 45.15 65.1 45.4 65.05
L 45.45 65
Q 46.1 64.5 46.25 63.8 46.35 62.85 46.65 61.9 46.95 61 47.25 60.05
L 47.25 60
Q 47.15 59.65 46.95 59.65 46.9 59.65 46.9 59.55 46.15 59 45.45 58.5
L 45.4 58.45
Q 45.25 58.25 45.05 58.2
L 45 58.2
Q 43.6 57.15 42.2 56.2
L 42.2 56.15
Q 42 56.15 41.85 55.85 41.85 54.55 41.5 53.1
L 41.55 53.05
Q 42 52.5 42.5 52 42.65 51.75 42.75 51.6 42.8 51.6 42.75 51.55 43.35 50.95 43.8 50.3
L 43.85 50.25
Q 44 50.1 44.15 49.85
L 44.1 49.8
Q 44.4 49.65 44.5 49.35 44.55 49.35 44.55 49.3 44.7 49.15 44.85 49 44.85 48.95 44.8 48.95 45.45 48.3 45.8 47.55
L 45.85 47.5 45.8 47.4
Q 44.6 45.3 43.35 43.15
M 31.15 54.35
Q 31.15 54.4 31.2 54.45 32.5 58.55 29.85 61.65
L 29.8 61.65
Q 29.7 61.85 29.45 62
L 29.45 62.05 29.4 62.1
Q 29.05 62.5 28.55 62.9
L 28.5 62.9
Q 28.15 63.1 27.85 63.25
L 27.85 63.3
Q 27.85 63.35 27.8 63.35 27.65 63.45 27.6 63.5
L 27.55 63.5
Q 27.3 63.6 27 63.75
L 26.95 63.75
Q 22.5 65.5 19.25 62.95
L 19.2 62.9
Q 19 62.65 18.75 62.55
L 18.7 62.5
Q 18.45 62.2 18.2 61.85
L 18.2 61.8
Q 17.85 61.4 17.5 60.9
L 17.5 60.8
Q 17.35 60.6 17.2 60.35 17.1 59.85 16.95 59.35 16.85 59.3 16.85 59.25 16.95 59.05 16.8 58.7
L 16.75 58.65 16.75 58.6
Q 16.3 54.65 19.75 51.65
L 19.8 51.65
Q 20.2 51.4 20.55 51.15
L 20.55 51.1 20.6 51.05 20.65 51.05
Q 21 51 21.4 50.75
L 21.45 50.7
Q 22.55 50.2 23.6 50.1
L 23.65 50.1
Q 23.85 50.1 24.1 50.05 24.15 50.05 24.2 50.05 26.85 49.9 29.05 51.5
L 29.1 51.55
Q 29.3 51.75 29.5 52
L 29.55 51.9
Q 29.85 52.3 30.1 52.6
L 30.1 52.65
Q 30.4 52.95 30.6 53.3 30.6 53.35 30.65 53.35
L 30.65 53.4
Q 30.95 53.75 30.95 54 31.05 54.15 31.1 54.3
L 31.15 54.35 Z"/>
</g>

<g id="Layer0_1_FILL">
<path fill="#FFFFFF" stroke="none" d="
M 57.25 7.3
Q 55.25 3.8 52.35 2.9 50.4958984375 2.26171875 48.9 2.1 48.5703125 2.1048828125 48.25 2.1
L 47.15 2.1
Q 45.4955078125 2.2310546875 43.5 2.9 40.6103515625 3.7802734375 38.6 7.3 37.1583984375 10.995703125 38.6 15.2 42.56796875 23.25 47.9 31.6 53.3 23.25 57.25 15.2 58.7 11 57.25 7.3
M 48.15 7.35
Q 49.4 7.35 50.3 8.25 51.2 9.15 51.2 10.4 51.2 11.65 50.3 12.55 49.4 13.45 48.15 13.45 46.9 13.45 46 12.55 45.1 11.65 45.1 10.4 45.1 9.15 46 8.25 46.9 7.35 48.15 7.35 Z"/>
</g>

<path id="Layer1_0_1_STROKES" stroke="#FFFFFF" stroke-opacity="0.5568627450980392" stroke-width="2.35" stroke-linejoin="round" stroke-linecap="round" fill="none" d="
M 4.1 38.95
Q 4.1 38.8 4.1 38.65
L 4.1 38.55
Q 4.2 32.3 17.85 27.8 31.65 23.35 51.1 23.35 70.55 23.35 84.3 27.8 97.25 32.05 98.05 37.9 98.1 38.25 98.1 38.65 98.1 38.95 98.05 39.35
L 98.15 50.45
Q 98.15 50.55 98.15 50.7
L 98.15 50.85
Q 98 57.1 84.35 61.5 70.6 66 51.15 66 31.7 66 17.9 61.5 5.1 57.35 4.25 51.55 4.15 51.15 4.15 50.7 4.15 50.25 4.25 49.75
L 4.1 38.95
Q 4.25 42 7.8 44.65 11.2 47.25 17.85 49.45 31.65 53.9 51.1 53.9 70.55 53.9 84.3 49.45 91 47.25 94.5 44.65 97.75 42.15 98.05 39.35
L 98.05 37.9
M 4.25 51.55
L 4.25 49.75"/>
</defs>

<g transform="matrix( 1, 0, 0, 1, 0,0) ">
<use xlink:href="#Layer1_0_1_STROKES"/>
</g>

<g transform="matrix( 1, 0, 0, 1, 0,0) ">
<use xlink:href="#Layer0_0_FILL"/>
</g>

<g transform="matrix( 1.3254241943359375, 0, 0, 1.3254241943359375, -12.35,-0.85) ">
<use xlink:href="#Layer0_1_FILL"/>
</g>
</svg>
