
<svg xmlns="http://www.w3.org/2000/svg" version="1.1" xmlns:xlink="http://www.w3.org/1999/xlink" preserveAspectRatio="none" x="0px" y="0px" width="100px" height="80px" viewBox="0 0 100 80">
<defs>
<g id="Layer0_0_FILL">
<path fill="#FFFFFF" stroke="none" d="
M 96.9 62.35
Q 96.9 58.2 93.95 55.25 91 52.3 86.85 52.3 82.7 52.3 79.75 55.25 79.25 55.75 78.85 56.3 76.8 58.9 76.8 62.35 76.8 65.95 79.05 68.65 79.35 69.05 79.75 69.45 82.7 72.4 86.85 72.4 91 72.4 93.95 69.45 96.9 66.5 96.9 62.35
M 55 31.65
Q 54.5 32.15 54.1 32.7 52.05 35.3 52.05 38.75 52.05 42.35 54.3 45.05 54.6 45.45 55 45.85 57.95 48.8 62.1 48.8 66.25 48.8 69.2 45.85 69.6130859375 45.4369140625 69.95 45 72.15 42.31875 72.15 38.75 72.15 35.2806640625 70.1 32.65 69.6837890625 32.1337890625 69.2 31.65 66.25 28.7 62.1 28.7 57.95 28.7 55 31.65
M 93.2 22.05
Q 96.15 19.1 96.15 14.95 96.15 10.8 93.2 7.85 90.25 4.9 86.1 4.9 81.95 4.9 79 7.85 78.5 8.35 78.1 8.9 78.0412109375 8.974609375 77.95 9.05 76.05 11.5990234375 76.05 14.95 76.05 18.55 78.3 21.25 78.35625 21.325 78.4 21.4 78.675 21.725 79 22.05 81.95 25 86.1 25 90.25 25 93.2 22.05
M 40.55 34.4
L 40.5 34.4
Q 39.8 34.45 39.1 34.7
L 39.05 34.65
Q 38.75 34.7 38.5 34.75
L 38.45 34.8
Q 38.1 34.85 37.85 34.9
L 37.8 34.85
Q 37.45 34.9 37.2 35 37.05 35.05 37 35.05 36.2 34.95 35.55 34.4 34.9 33.9 34.2 33.25 34.15 30.2 33.5 27 33.5 26.95 33.45 26.95
L 33.5 26.9
Q 33.4 26.5 33.15 26.6
L 33.05 26.6
Q 30.8 26.05 28.45 25.5
L 28.4 25.6
Q 27.75 26.15 27.2 26.8 27.2 26.9 27.15 26.9 27.1 27.1 26.85 27.2 26.9 27.25 26.9 27.3 26.15 28.3 25.5 29.25 24.75 30.3 23.8 31 23.8 30.95 23.75 30.95 23.45 31 23.25 31.05 23.2 31.1 23.15 31.1 21.9 31.4 20.75 31.2
L 20.75 31.15
Q 20.6 31 20.4 30.95
L 20.3 30.9
Q 19.8 30.5 19.25 30.1
L 19.25 30
Q 19 29.85 18.85 29.8
L 18.8 29.8
Q 18.6 29.7 18.35 29.45 18.3 29.45 18.3 29.35 18.15 29.2 17.95 29.15 17.95 29.2 17.9 29.2 16.75 28.25 15.55 27.55 15.5 27.6 15.45 27.6 13.15 28.95 10.9 30.25
L 10.9 30.3
Q 11 32.1 11.25 33.9
L 11.2 33.95
Q 11.25 34.1 11.2 34.25 11.2 34.3 11.25 34.35 11.25 34.4 11.3 34.4 11.3 34.45 11.3 34.55
L 11.3 34.6
Q 11.3 34.65 11.3 34.7 11.35 34.9 11.3 35.05 11.3 35.1 11.35 35.2
L 11.35 35.25
Q 11.45 35.25 11.45 35.3 11.55 36.05 11.7 36.8
L 11.65 36.85
Q 11.35 37.25 11.05 37.6 11 37.6 11 37.65 10.85 37.85 10.65 38
L 10.65 38.05 10.7 38.1
Q 10.45 38.35 10.3 38.55
L 10.25 38.6
Q 10.05 38.75 9.9 38.9 9.9 39 9.9 39.05
L 9.85 39.05
Q 9.7 39.35 9.4 39.3
L 9.35 39.3
Q 9.15 39.3 8.9 39.35
L 8.8 39.35
Q 8 39.5 7.25 39.65
L 7.2 39.65
Q 7 39.65 6.7 39.7
L 6.65 39.7
Q 6.4 39.7 6.05 39.85
L 6 39.8
Q 5.75 39.85 5.45 39.9
L 5.4 39.9
Q 5.25 39.9 5 40
L 4.95 39.95
Q 4.7 40 4.45 40.05 4.45 40.1 4.35 40.1 3.85 40.15 3.3 40.35
L 3.25 40.3
Q 2.95 40.4 2.75 40.5
L 2.8 40.55 2.75 40.55
Q 2.15 43 1.3 45.3 1.4 45.5 1.5 45.65
L 1.5 45.6
Q 1.7 45.85 2 46.05 2.15 46.25 2.3 46.3
L 2.35 46.3
Q 2.55 46.5 2.75 46.55
L 2.8 46.55
Q 3 46.8 3.25 46.95
L 3.3 47
Q 3.45 47.15 3.65 47.3 3.65 47.35 3.7 47.3 3.85 47.45 4 47.5
L 4.05 47.55
Q 4.2 47.65 4.35 47.8
L 4.45 47.8
Q 5 48.05 5.5 48.6
L 5.55 48.6
Q 5.75 48.8 5.95 48.85
L 6 48.85
Q 6.25 49.1 6.6 49.3 6.75 49.65 6.75 50
L 6.75 50.1
Q 6.8 50.35 6.75 50.6
L 6.75 50.65 6.8 50.7
Q 6.8 50.75 6.85 50.75 7.2 51.8 6.75 52.6
L 6.7 52.6
Q 6.55 52.75 6.45 52.9 6.45 52.95 6.5 52.95
L 6.45 53.05
Q 6.25 53.3 6 53.5 5.95 53.5 5.95 53.55 5.8 53.75 5.7 53.9
L 5.75 53.95
Q 5.7 53.95 5.7 54 5.5 54.1 5.4 54.3
L 5.35 54.35
Q 5.2 54.5 5 54.65 5 54.7 5 54.75
L 4.95 54.75
Q 4.55 55.4 4.05 56 4 56 4 56.05 3.85 56.2 3.7 56.35
L 3.7 56.45
Q 3.6 56.6 3.45 56.75 3.4 56.75 3.4 56.85 3.25 57 3.05 57.2 3.05 57.25 3.15 57.25
L 3.05 57.3
Q 2.95 57.6 2.75 57.85 4 59.95 5.2 62.15 5.25 62.15 5.25 62.2 5.4 62.15 5.55 62.15 5.8 62.2 6 62.15
L 6.05 62.15
Q 6.2 62.1 6.45 62.1
L 6.5 62.05
Q 6.7 62.1 6.9 62.05
L 7 62.05
Q 7.3 61.95 7.65 61.8 7.7 61.8 7.7 61.85 7.9 61.95 8.15 61.8
L 8.25 61.8
Q 9.6 61.55 10.95 61.35 11 61.35 11 61.3 11.25 61.35 11.6 61.2
L 11.6 61.15 11.65 61.15
Q 12.1 60.95 12.35 61.3 12.4 61.3 12.4 61.35 12.6 61.5 12.85 61.65
L 12.9 61.65
Q 13.5 62.05 14.1 62.5 14.1 62.6 14.15 62.6 14.3 62.7 14.45 62.9 14.45 62.95 14.5 62.95
L 14.5 63
Q 14.85 66.05 15.3 69.15 15.9 69.85 16.6 69.9 17.7 70.05 18.8 70.4 19.6 70.65 20.5 70.45 20.75 70.4 20.9 70.15 21.15 69.95 21.3 69.75
L 21.3 69.7
Q 21.55 69.45 21.7 69.25
L 21.75 69.2
Q 21.9 69 22.05 68.8
L 22.05 68.75
Q 22.2 68.55 22.45 68.35 22.5 68.35 22.45 68.25 22.65 68.1 22.75 67.9
L 22.7 67.85
Q 23.15 67.35 23.55 66.85
L 23.55 66.8
Q 23.75 66.65 23.9 66.45 23.9 66.4 23.85 66.4 24.35 65.85 24.65 65.35
L 24.7 65.3
Q 25 65.25 25.25 65.15 25.5 65.2 25.7 65.15
L 25.75 65.15
Q 26.8 64.85 27.7 64.8
L 27.75 64.8
Q 28.25 65.15 28.8 65.45
L 28.8 65.5
Q 29 65.65 29.15 65.8 29.15 65.85 29.2 65.8 29.35 66 29.55 66.05
L 29.55 66.1
Q 29.75 66.25 29.95 66.4
L 30 66.4
Q 31.55 67.6 33.25 68.6 33.3 68.6 33.3 68.65 35.55 67.3 37.9 66
L 37.95 65.95 37.9 65.9
Q 37.85 63.15 37.3 60.35
L 37.3 60.3
Q 37.35 60.05 37.25 59.75 37.2 59.7 37.2 59.65 37.75 58.45 38.7 57.3 39.1 56.85 39.65 56.85 39.85 56.9 40.05 56.85 40.15 56.85 40.2 56.75 41 56.6 41.75 56.5
L 41.8 56.5
Q 42.05 56.55 42.25 56.5 42.3 56.5 42.35 56.45 43.7 56.25 45.05 55.95 45.1 55.95 45.15 55.9 45.4 55.95 45.65 55.9
L 45.7 55.85
Q 46.35 55.35 46.5 54.65 46.6 53.7 46.9 52.75 47.2 51.85 47.5 50.9
L 47.5 50.85
Q 47.4 50.5 47.2 50.5 47.15 50.5 47.15 50.4 46.4 49.85 45.7 49.35
L 45.65 49.3
Q 45.5 49.1 45.3 49.05
L 45.25 49.05
Q 43.85 48 42.45 47.05
L 42.45 47
Q 42.25 47 42.1 46.7 42.1 45.4 41.75 43.95
L 41.8 43.9
Q 42.25 43.35 42.75 42.85 42.9 42.6 43 42.45 43.05 42.45 43 42.4 43.6 41.8 44.05 41.15
L 44.1 41.1
Q 44.25 40.95 44.4 40.7
L 44.35 40.65
Q 44.65 40.5 44.75 40.2 44.8 40.2 44.8 40.15 44.95 40 45.1 39.85 45.1 39.8 45.05 39.8 45.7 39.15 46.05 38.4
L 46.1 38.35 46.05 38.25
Q 44.85 36.15 43.6 34
L 43.55 34.05
Q 42.35 34.05 41.15 34.3
L 41.1 34.3
Q 40.85 34.3 40.55 34.4
M 20 42.5
L 20.05 42.5
Q 20.45 42.25 20.8 42
L 20.8 41.95 20.85 41.9 20.9 41.9
Q 21.25 41.85 21.65 41.6
L 21.7 41.55
Q 22.8 41.05 23.85 40.95
L 23.9 40.95
Q 24.1 40.95 24.35 40.9 24.4 40.9 24.45 40.9 27.1 40.75 29.3 42.35
L 29.35 42.4
Q 29.55 42.6 29.75 42.85
L 29.8 42.75
Q 30.1 43.15 30.35 43.45
L 30.35 43.5
Q 30.65 43.8 30.85 44.15 30.85 44.2 30.9 44.2
L 30.9 44.25
Q 31.2 44.6 31.2 44.85 31.3 45 31.35 45.15
L 31.4 45.2
Q 31.4 45.25 31.45 45.3 32.75 49.4 30.1 52.5
L 30.05 52.5
Q 29.95 52.7 29.7 52.85
L 29.7 52.9 29.65 52.95
Q 29.3 53.35 28.8 53.75
L 28.75 53.75
Q 28.4 53.95 28.1 54.1
L 28.1 54.15
Q 28.1 54.2 28.05 54.2 27.9 54.3 27.85 54.35
L 27.8 54.35
Q 27.55 54.45 27.25 54.6
L 27.2 54.6
Q 22.75 56.35 19.5 53.8
L 19.45 53.75
Q 19.25 53.5 19 53.4
L 18.95 53.35
Q 18.7 53.05 18.45 52.7
L 18.45 52.65
Q 18.1 52.25 17.75 51.75
L 17.75 51.65
Q 17.6 51.45 17.45 51.2 17.35 50.7 17.2 50.2 17.1 50.15 17.1 50.1 17.2 49.9 17.05 49.55
L 17 49.5 17 49.45
Q 16.55 45.5 20 42.5 Z"/>
</g>

<path id="Layer0_0_1_STROKES" stroke="#FFFFFF" stroke-width="3" stroke-linejoin="round" stroke-linecap="round" fill="none" d="
M 78.425 21.4
L 59.9 21.4
Q 57.85 21.4 56.35 19.9 54.9 18.45 54.9 16.4
L 54.9 14.05
Q 54.9 12 56.35 10.5 57.85 9.05 59.9 9.05
L 77.975 9.05
M 70.1 32.65
L 89.1 32.65
Q 91.15 32.65 92.6 34.1 94.1 35.6 94.1 37.65
L 94.1 40
Q 94.1 42.05 92.6 43.5 91.15 45 89.1 45
L 69.975 45
M 79.05 68.65
L 59.9 68.65
Q 57.85 68.65 56.35 67.15 54.9 65.7 54.9 63.65
L 54.9 61.3
Q 54.9 59.25 56.35 57.75 57.85 56.3 59.9 56.3
L 78.85 56.3"/>
</defs>

<g transform="matrix( 1, 0, 0, 1, 0,0) ">
<use xlink:href="#Layer0_0_FILL"/>

<use xlink:href="#Layer0_0_1_STROKES"/>
</g>
</svg>
